<?xml version="1.0" encoding="iso-8859-1"?>
<!-- Generator: Adobe Illustrator 20.1.0, SVG Export Plug-In . SVG Version: 6.00 Build 0)  -->
<svg width="40"
	 height="40" xmlns="http://www.w3.org/2000/svg" xmlns:xlink="http://www.w3.org/1999/xlink" version="1.1"
	  id="&#1057;&#1083;&#1086;&#1081;_1" x="0px" y="0px" viewBox="0 0 64 64" style="enable-background:new 0 0 64 64;" xml:space="preserve">
<linearGradient id="SVGID_1__44817" gradientUnits="userSpaceOnUse" x1="32.0001" y1="4.9974" x2="32.0001" y2="58.2876" spreadMethod="reflect">
	<stop offset="0" style="stop-color:#1A6DFF"/>
	<stop offset="1" style="stop-color:#C822FF"/>
</linearGradient>
<path style="fill:url(#SVGID_1__44817);" d="M55,52.001v-2C55,48.898,54.105,48,53.003,48H52V28h1.99c1.3,0,2.414-0.808,2.839-2.056  c0.434-1.275,0.03-2.625-1.028-3.439L52,19.581v-4.585C52,13.341,50.657,12,49.002,12h-6.862l-5.931-4.564  c-2.479-1.907-5.942-1.906-8.419,0.001L21.859,12h-6.861C13.343,12,12,13.341,12,14.996v4.585l-3.803,2.924  c-1.057,0.814-1.46,2.165-1.026,3.44C7.596,27.192,8.709,28,10.009,28H12v20h-1.003C9.894,48,9,48.898,9,50.001v2c-1,0-2,0.897-2,2  v2C7,57.105,7.894,58,8.996,58h46.006C56.106,58,57,57.105,57,56.002v-2C57,52.898,56,52.001,55,52.001z M50,48h-4V28h4V48z M36,48  h-8V36h8V48z M36,34h-8.001C26.896,34,26,34.896,26,35.999V48h-6V28h24v20h-6V35.999C38,34.896,37.103,34,36,34z M49.002,14  C49.554,14,50,14.445,50,14.996v3.047L44.741,14H49.002z M14,14.996C14,14.445,14.445,14,14.997,14h4.261L14,18.042V14.996z   M9.064,25.299C8.942,24.94,8.97,24.433,9.415,24.09L29.009,9.019C29.89,8.341,30.945,8.003,32,8.003  c1.055,0,2.11,0.338,2.991,1.016l19.593,15.071c0.446,0.343,0.475,0.851,0.353,1.21C54.88,25.463,54.646,26,53.99,26H10.009  C9.353,26,9.12,25.463,9.064,25.299z M14,28h4v20h-4V28z M11,50h42v2H11V50z M55,56H9v-2h46V56z"/>
<linearGradient id="SVGID_2__44817" gradientUnits="userSpaceOnUse" x1="32" y1="5" x2="32" y2="58.2875" spreadMethod="reflect">
	<stop offset="0" style="stop-color:#1A6DFF"/>
	<stop offset="1" style="stop-color:#C822FF"/>
</linearGradient>
<rect x="28" y="30" style="fill:url(#SVGID_2__44817);" width="8" height="2"/>
<linearGradient id="SVGID_3__44817" gradientUnits="userSpaceOnUse" x1="33" y1="5" x2="33" y2="58.2875" spreadMethod="reflect">
	<stop offset="0" style="stop-color:#1A6DFF"/>
	<stop offset="1" style="stop-color:#C822FF"/>
</linearGradient>
<rect x="32" y="40" style="fill:url(#SVGID_3__44817);" width="2" height="4"/>
<linearGradient id="SVGID_4__44817" gradientUnits="userSpaceOnUse" x1="31.9997" y1="14.3291" x2="31.9997" y2="22.332" spreadMethod="reflect">
	<stop offset="0" style="stop-color:#6DC7FF"/>
	<stop offset="1" style="stop-color:#E6ABFF"/>
</linearGradient>
<circle style="fill:url(#SVGID_4__44817);" cx="32" cy="17.996" r="3"/>
</svg>